<?xml version="1.0" encoding="UTF-8"?>
<svg viewBox="0 0 248.03149 248.03148" xmlns="http://www.w3.org/2000/svg">
 <path d="m45.121 189.72h158.73v7.4756h-158.73z" fill-rule="evenodd"/>
 <path d="m48.632 187.6h65.741v-25.373c0-11.622 20.228-11.622 20.228 0v25.373h65.741v-76.648h-50.57v29.954h-10.114v-11.982h-10.114v11.982h-10.114l-1e-5 -11.982h-10.114v11.982h-10.114v-29.954h-50.57v76.648zm21.532-71.383h7.2264v17.069h-7.2264v-17.069zm101.42 0h7.2264v17.069h-7.2264v-17.069z" fill-rule="evenodd"/>
 <path d="m41.848 108.83h64.138v-28.897h-12.828v15.506h-12.828v-15.506h-12.828v15.506h-12.828v-15.506h-12.828v28.897z" fill-rule="evenodd"/>
 <path d="m142.99 108.83h64.138v-28.897h-12.828v15.506h-12.828v-15.506h-12.828v15.506h-12.828v-15.506h-12.828l-1e-5 28.897z" fill-rule="evenodd"/>
</svg>
