<?xml version="1.0" encoding="UTF-8"?>
<svg width="600" height="771.26" version="1.1" viewBox="0 0 6000 7712.6367" xmlns="http://www.w3.org/2000/svg">
 <g transform="matrix(1.3363 0 0 1.3363 -7022.3 -207.62)">
  <g transform="translate(5e3)" fill="#d00" stroke="#000" stroke-miterlimit="5" stroke-width="40">
   <path d="m2490 734c-247-6-458-4-709-146 132 200 443 254 712 248"/>
   <path d="m2350 285c-233-204-590-98-359 308 150-122 279 19 329 144-94 49-232 74-367 64 175 123 384 95 564-3"/>
  </g>
  <path transform="scale(10)" d="m734.63 15.539c-1.9894 0.03667-3.7469 0.54453-5.2344 1.6602-13.6 10.2 13.2 45.601 15.6 61.201 0.8 5.7-12.6 3.9992-12.6 9.1992 3.4775 39.076-29.05 39.976-34.598 95.178-142.05-16.265-139.04-81.497-119.5-106.88 20.2 29.4 62.399 15.8 68.699-11.9-39.9-61.5-94-5.7-121.5-23.5 2.5 9.7 9.3 19.7 19 23.5-8.7 8.8-18.5 20.2-18.5 46v392.96l27.5-23.076v-299.97c2.5225 2.6318 5.1973 5.1483 8 7.5644v285.69l27.5-23.076v-244.16c2.6129 1.3767 5.2795 2.7026 8 3.9746v233.47l27.5-23.074v-199.72c2.6397 0.8449 5.3088 1.6534 8 2.4277v190.58l27.5-23.076v-160.9c2.6562 0.52517 5.324 1.0232 8 1.4941v152.69l27.5-23.076v-125.7c1.1002 0.12256 2.2012 0.25818 3.3008 0.37305 2.7 31.6 8.4996 74.1 19.1 114.65l-72.6 79.199 40.199-7.9492-1.1992 53.199 33.699-50.551c0 120.55-33.199 131.05-60.699 121.25 3.2 22.5 44.499 31.9 64.199 15.9l28.5 31.6 28.5-31.6c19.7 16 60.999 6.5996 64.199-15.9-27.5 9.8-60.699-0.7-60.699-121.25l33.699 50.551-1.1992-53.199 40.199 7.9492-72.6-79.199c10.6-40.55 16.4-83.05 19.1-114.65 1.0996-0.11487 2.2005-0.25049 3.3008-0.37305v133.22l27.5 23.074v-160.21c2.676-0.47097 5.3438-0.96897 8-1.4941v168.42l27.5 23.076v-198.1c2.6912-0.77436 5.3603-1.5828 8-2.4277v207.24l27.5 23.076v-240.99c2.7205-1.272 5.3871-2.5979 8-3.9746v251.68l27.5 23.074v-293.21c2.8027-2.4161 5.4775-4.9327 8-7.5644v307.49l20.971 17.598h6.5293v-395c0-25.8-9.8-37.2-18.5-46 9.7-3.8 16.5-13.8 19-23.5-17.188 11.125-44.766-6.499-72.773-6.2676-16.805 0.13887-33.764 6.7051-48.727 29.768 6.3 27.7 48.499 41.3 68.699 11.9 19.265 25.027 22.474 88.808-113.64 106.17 0.31497-34.373-5.3132-81.142-23.057-131.38 10.9-3.2 17.401-7.2 23.301-16-25.917 11.489-57.467-19.459-73.666-19.16z"/>
  <path d="m6813 4108-492 613-378-170-123 113-13 222 134-136 10-192-10 192 329 54-480 282 99 290 35-244-125-55 218 96 306-292-13 583 201 90-86-189-108-7 196 12-104-510 363 187 121-133-121 131 10 177 138-163-8-148-475-133 585-542" fill="#d00" stroke="#000" stroke-miterlimit="5" stroke-width="40"/>
  <path d="m8187 4108 492 613 378-170 123 113 13 222-134-136-10-192 10 192-329 54 480 282-99 290-35-244 125-55-218 96-306-292 13 583-201 90 86-189 108-7-196 12 104-510-363 187-121-133 121 131-10 177-138-163 8-148 475-133-585-542" fill="#d00" stroke="#000" stroke-miterlimit="5" stroke-width="40"/>
  <path d="m7326.8 267.7c-8.7-4.6-18.2-0.1-16.2 16.5 6.8 55.8 30 96.7 53.7 138.3 8.7 15.2 19.7 24.7 40.1 9.8 27.6-20.2 52.9-44.1 72.7-72-55.8-42.8-61.8-45.3-103.6 55.1-4.9-40.7-3-84 5.8-119.5" fill="#fff"/>
 </g>
</svg>
