<?xml version="1.0" encoding="UTF-8"?>
<svg viewBox="0 0 128 128" xmlns="http://www.w3.org/2000/svg">
 <defs>
  <filter id="c">
   <feGaussianBlur stdDeviation="2.360985"/>
  </filter>
  <radialGradient id="d" cx="66.923" cy="73.452" r="46.467" gradientTransform="matrix(1 0 0 1.0326 0 -2.3952)" gradientUnits="userSpaceOnUse">
   <stop stop-color="#00b500" offset="0"/>
   <stop stop-color="#005800" stop-opacity=".498" offset=".7069"/>
   <stop stop-color="#005900" stop-opacity="0" offset="1"/>
  </radialGradient>
 </defs>
 <path d="m121.72 64.381c0 32.884-26.288 59.542-58.715 59.542s-58.715-26.658-58.715-59.542 26.288-59.542 58.715-59.542 58.715 26.658 58.715 59.542z" filter="url(#c)"/>
 <path d="m118.73 64.381c0 31.208-24.948 56.508-55.723 56.508s-55.723-25.299-55.723-56.508c0-31.208 24.948-56.508 55.723-56.508s55.723 25.299 55.723 56.508z" fill="url(#d)"/>
 <g fill="none" stroke="#00ed00">
  <path d="m104.45 64.381c0 23.21-18.554 42.025-41.442 42.025s-41.442-18.815-41.442-42.025 18.554-42.025 41.442-42.025 41.442 18.815 41.442 42.025z" opacity=".758"/>
  <path d="m90.977 64.381c0 15.664-12.522 28.362-27.968 28.362s-27.968-12.698-27.968-28.362 12.522-28.362 27.968-28.362c15.447 0 27.968 12.698 27.968 28.362z" opacity=".758"/>
  <path d="m77.316 64.381c0 8.0133-6.4058 14.509-14.308 14.509-7.902 0-14.308-6.496-14.308-14.509 0-8.0132 6.4058-14.509 14.308-14.509 7.902 0 14.308 6.496 14.308 14.509z" opacity=".758"/>
 </g>
 <g transform="matrix(1.2425 0 0 1.2425 -15.28 -1166.6)" stroke="#00bf00" stroke-width=".2">
  <g fill="#0f0">
   <path d="m31.567 958.92l63.387 63.892"/>
   <path d="m40.154 951.85l45.204 77.782"/>
   <path d="m51.013 946.8l23.739 87.378"/>
  </g>
  <path d="m62.882 945.54v90.661" fill="none"/>
  <g fill="#0f0">
   <path d="m74.625 947.18l-22.855 87.252"/>
   <path d="m85.737 951.85l-45.331 78.034"/>
   <path d="m101.9 968.27c-1.0102 0-77.656 45.204-77.656 45.204"/>
   <path d="m101.77 1013.2l-77.529-44.699"/>
   <path d="m106.57 1002.6l-86.621-22.981"/>
   <path d="m106.32 979.38l-86.873 22.981"/>
   <path d="m18.183 990.49l89.146 0.2525"/>
   <path d="m31.315 1022.3l64.145-63.387"/>
  </g>
 </g>
 <path d="m118.73 64.381a55.723 56.508 0 1 1 -111.45 0 55.723 56.508 0 1 1 111.45 0z" fill="none" stroke="#00ed00"/>
</svg>
