<?xml version="1.0" encoding="UTF-8"?>
<svg viewBox="0 0 128 128" xmlns="http://www.w3.org/2000/svg">
 <path d="m57.21875,11.4375-6.46875,2.5625v3.53125l.65625.28125 .0625,2.03125-6.5625,2.3125c-4.70449,2.9084-7.96704,7.40292-11.5625,11.53125 .2182.40999.0139,1.05793.25,1.4375s1.12192-.07026 1.375.28125 .29339,1.23669.5625,1.5625 .99703.19753 1.28125.5h-.09375c-.38847,2.23536-.42108,4.51423-.34375,6.8125l-.65625-.71875-.25.09375-.03125-.71875-.8125-.15625-2.25,1.75 .03125.4375-1.0625.46875-.0625-.90625-.8125-.1875-2.25,1.75 .03125.65625-1.0625.46875-.0625-1.03125-.84375-.1875-2.25,1.75 .03125.78125-1.46875.625-.0625-.96875-.8125-.15625-2.25,1.75 .03125.6875-1.75.75-.0625-1.125-.8125-.1875-2.25,1.75 .03125.90625-1.65625.6875-.0625-1.125-.84375-.1875-2.25,1.75 .03125.90625-1.84375.78125-.0625-1.0625-.8125-.1875-2.25,1.75 .03125.8125-1.96875.84375-.125,1.9375 .5625.71875 .96875-.125v.09375l-.90625.3125c-1.00544.42318-.96459,1.21809-.71875,2.28125l1.03125.78125 .46875.375v.25l-.96875.34375c-1.00544.42318-.96459,1.2181-.71875,2.28125l1.59375,1.1875-.0625,1.78125 1.90625,1.4375 1.25.09375v-.96875l.375.3125-.03125,1.625 1.90625,1.4375 1.25.09375v-.8125l.375.28125-.03125,1.625 1.90625,1.4375 1.25.09375v-.8125l1,.78125-.03125,1.625 1.90625,1.4375 1.25.09375v-.8125l1.25.96875-.03125,1.5625 1.90625,1.4375 1.25.09375v-.75l1.125.875-.03125,1.46875 1.90625,1.4375 1.25.09375v-.6875l1.25.96875-.03125,1.5625 1.90625,1.4375 1.25.09375v-.75l1.75,1.34375-.03125,1.625 1.90625,1.4375 1.25.09375v-.8125l1.5,1.15625-.03125,1.625 1.90625,1.4375 1.25.09375v-.8125l1.59375,1.21875 .03125-.65625-1.625-1.25v-1.5625l1.6875,1.3125-.09375,3.71875 1.90625,1.4375 1.25.09375v-.71875l1.03125.75-.0625,1.6875 1.90625,1.4375 1.25.09375v-.875l1.53125,1.125-.0625,1.71875 1.90625,1.4375 1.25.09375v-.875l1.125.84375-.03125,1.375 1.90625,1.4375 1.25.09375v-.53125l1.5,1.125 1.34375-.34375-.1875-2.53125-2.65625-2.03125v-.4375l1.6875,1.3125 1.34375-.34375-.1875-2.53125-2.875-2.1875v-1.25l-2.5-2.09375-.34375.4375-.03125.75-1.375-1.0625v-.90625l-2.5-2.09375-.34375.4375v.375l-1.78125-1.34375v-.875l-2.5-2.09375-.34375.4375v.40625l-1.28125-.96875v-1.03125l-2.5-2.09375-.34375.4375v.53125l-1.90625-1.46875v-.90625l-2.5-2.09375-.34375.4375v.40625l-1.09375-.84375 18.59375-9.1875c.08412-.42152.12231-.84419.15625-1.25 .00272-.03258.02878-.06128.03125-.09375 .45816-2.29631.2574-3.56759-.25-4.875-.06444-.66643-.10938-1.34399-.125-2.03125l-.9375-.1875-.75-1.21875-.6875-.125-.84375-.90625-.78125-.125-.78125-1.03125-.78125.03125-1-.875-.625-.15625-.59375-1.46875-.96875.46875-.8125-.6875-.8125-.34375-.78125-.78125-.78125-.25-.78125-1.375-.84375.375-.59375-1.09375-.96875.0625-.78125-.875-.84375-.15625-.8125-.90625-.75-.09375-.8125-1.03125h-.8125l-.8125-1h-.75l-.84375-1.1875-.78125.15625-.59375-.90625 .96875-.4375 .03125.96875 .78125.34375 2.46875-1-.09375-1.71875 .8125-.375c.0161.57481.06466,1.14615.0625,1.71875 4.88506,3.74589 10.38881,6.75047 15.84375,9.8125l3.5625-1.6875c.66019.63311 1.64688.94377 3.03125,1.0625 1.00471-.1027 1.92514-.55955 2.65625-1.1875 .56468-.42907 1.07453-.92685 1.5-1.5 .43806-.71201.78396-1.47983 1-2.28125l4.40625-2.09375v1.5l1.34375.6875 .71875.40625 8.5-3.96875-.09375-1.6875-1.375-1.25 3.21875-1.53125c-.01268-.48511-.00908-.96347 0-1.4375l1.59375,1.21875-.0625,1.75 1.90625,1.4375 1.25.09375v-.9375l.40625.3125-.0625,1.59375 1.90625,1.4375 1.25.09375v-.78125l.40625.3125-.0625,1.34375-.4375.53125-.78125-.3125-.75.90625-.78125-.34375-.8125,1-.71875-.4375-.71875,1-.8125-.4375-.75.65625-.8125-.34375-.71875.5625-.90625-.78125-.59375,1.5625-.8125-.46875-.71875,1.125-.8125-.03125-.625.53125-.90625-.65625-.71875,1.625-.8125-.84375-.59375.96875-.9375-.46875-.78125.84375-.6875-.3125-.71875,1.46875-.8125-.6875-.53125.78125-.84375-.53125-1,1c-.12716,2.39583-.77711,4.79167 0,7.1875 5.74567,3.23665 14.96664,10.92079 23.125,17.28125 4.89413-.93082 7.58674-3.74629 11.375-5.625 3.91392-1.5009 7.66934-2.33217 11.75-4.5 .29346-1.47086.03485-2.68302-.21875-3.96875l1.03125.09375v-.65625l1.53125,1.15625-.0625,1.46875 1.90625,1.4375 .65625.0625-1.1875.90625 .03125.59375-1.09375.4375-.03125-.9375-.84375-.1875-2.25,1.75 .03125.6875-1.5.59375-.03125-.84375-.8125-.15625-2.25,1.75 .03125.53125-1.78125.75-.03125-.96875-.8125-.1875-2.25,1.75 .03125.65625-1.6875.71875-.03125-.90625-.84375-.1875-2.25,1.75 .03125.625-1.875.78125-.03125-.78125-.8125-.1875-2.25,1.75v.5l-1.90625.78125-.03125-.9375-.84375-.1875-2.25,1.75 .03125.65625-1.53125.65625-.0625-1.125-.8125-.1875-2.25,1.75 .03125.84375-1.9375.8125-.125,1.9375 .5625.71875 1.09375-.125 .5-.21875v.375l-1.65625.6875-.15625,1.9375 .59375.6875 1.0625-.09375 .25-.09375v.09375l.78125.34375 2.46875-1-.03125-.84375 1.40625-.59375v.34375l.78125.34375 2.46875-1-.0625-1.0625 1.8125-.78125 .03125.59375 .78125.34375 2.46875-1-.0625-1.3125 1.75-.71875v.5l.78125.34375 2.46875-1-.0625-1.21875 1.59375-.6875v.53125l.78125.34375 2.46875-1-.0625-1.25 1.625-.71875 .03125.75 .78125.34375 2.46875-1-.0625-1.46875 1.34375-.59375 .03125.6875 .78125.34375 2.46875-1-.0625-1.40625 .96875-.40625 .03125.8125 .78125.34375 2.46875-1-.0625-1.53125 .9375-.40625 .03125,1.03125 .78125.34375 2.46875-1-.09375-1.75 .96875-.40625c.01126-.02874.02032-.03553.03125-.0625l.875-.21875-.1875-2.53125-1-.78125 .1875-.40625 1.1875-.3125-.1875-2.53125-2.90625-2.21875v-1.25l-2.5-2.09375-.34375.4375-.03125.6875-1.875-1.4375v-1.09375l-2.5-2.09375-.34375.4375-.03125.5625-1.75-1.34375v-1.0625l-2.5-2.09375-.34375.4375-.03125.53125-2-1.53125v-1.09375l-2.5-2.09375-.34375.4375-.03125.53125-1.5-1.125v-1.125l-2.5-2.09375-.34375.4375-.03125.5625-1.375-1.0625v-.96875l-2.5-2.09375-.34375.4375-.03125.4375-1.5-1.15625v-.875l-2.5-2.09375-.34375.4375v.375l-1.28125-1v-.84375l-2.5-2.09375-.34375.4375v.34375l-.65625-.5v-.8125l-2.5-2.09375-.34375.4375v.28125l-.65625-.5v-.625l-2.5-2.09375-.34375.4375v.28125l-.90625.3125c-.37704.15869-.59161.36722-.71875.625-.0053-1.72309-.14588-3.45972-.71875-5.28125 .26154-.00912.50267-.02955.65625-.125 .50056-.3111.38959-1.5247.84375-1.84375s.93961-.31408 1.34375-.65625 .33701-1.15079.6875-1.53125 1.11304-.34732 1.40625-.78125c-5.54133-5.83897-11.57842-11.05822-18.0625-15.71875l-4.0625,1.4375 .0625-.96875-6.0625-3.3125zm-.09375.4375 4.84375,2.65625-5.375,2.0625-4.875-2.59375 5.40625-2.125zm-.25.84375-2.8125,1.34375 2.5,1.75 3.25-1.28125-2.9375-1.8125zm-.03125.375 .0625,2.375-.28125.125-1.875-1.46875 2.09375-1.03125zm.28125.0625 2.1875,1.3125-2.15625.90625-.03125-2.21875zm-5.875,1.09375 5.21875,2.8125-.0625,1.03125-1.9375.6875-3.28125-1.4375 .0625-3.09375zm16.03125.4375c6.46416,4.55691 12.38553,9.58609 17.4375,15.4375-.2343.29202-.68741.22336-1,.53125s-.24211,1.21127-.625,1.53125-1.02357.45295-1.46875.78125-.40677,1.22965-.90625,1.5625-1.54798.07263-2.09375.40625-1.19719.32563-1.78125.65625-.7294,1.3949-1.34375,1.71875-1.51961-.0633-2.15625.25c-.33187.16332-.75142.9964-1.09375,1.15625s-.67908-.37534-1.03125-.21875-.82612,1.12772-1.1875,1.28125-.63003-.18194-1-.03125-.84082.85194-1.21875,1-.64598-.23939-1.03125-.09375-.82676.98157-1.21875,1.125-.75816-.42268-1.15625-.28125-.97144,1.04785-1.375,1.1875-.43535-.85681-.84375-.71875-1.05612,1.1133-1.46875,1.25-.77128-.16679-1.1875-.03125-.7058,1.08416-1.125,1.21875-.9847-.57135-1.40625-.4375-.67047,1.02293-1.09375,1.15625-1.01312-.47675-1.4375-.34375c-.34828.20159-.54067,1.13653-.90625,1.25s-.80935-.21014-1.1875-.15625-.95776.53965-1.34375.5625-.6734-.80161-1.0625-.78125c-.37109-.19931-1.62214-.08354-2-.28125s-.2739-.73973-.65625-.9375-1.08422-.01926-1.46875-.21875-.33432-.89088-.71875-1.09375-1.24297-.04209-1.625-.25-.02891-.62914-.40625-.84375-1.19215-.12078-1.5625-.34375-.29517-.76701-.65625-1-1.15049-.28658-1.5-.53125-.38311-1.05449-.71875-1.3125-.86802.11676-1.1875-.15625c-.19222-.16426-.30976-.61316-.40625-1 .00857-.06177.02221-.1263.03125-.1875h-.0625c-.05315-.18066-.09694-.31911-.1875-.40625-.30103-.28967-.90721-.16076-1.1875-.46875s-.274-1.23452-.53125-1.5625-1.04933.25587-1.28125-.09375 .17305-.97083-.03125-1.34375c3.5506-4.18494 6.94536-8.76627 11.28125-11.15625l9.46875-3.3125 12.71875-4.46875zm-4.4375.21875v.9375l-6,2.09375 .03125-.96875 5.96875-2.0625zm3,2 .0625.125c1.4981,1.559 2.83149,2.33137 4.5,4.6875l.21875-.0625c-1.48319-2.13613-3.18681-3.17009-4.78125-4.75zm-14.15625,1.03125 2.375,1-2.34375.8125-.03125-1.8125zm9.8125,2.75-.1875.03125 2.4375,5.8125 .03125-.125c-.85554-2.18095-1.53305-3.85983-2.28125-5.71875zm-5.0625.09375-.15625.0625c2.17369,3.91029 4.35907,7.81863 5.84375,11.84375l.15625-.03125c-1.55925-3.88491-3.71135-7.87545-5.84375-11.875zm11,1.75c2.26086,3.44464 4.76905,6.27747 6.78125,10.34375l.125-.125c-1.6601-4.12867-4.50388-6.79136-6.75-10.1875l-.15625-.03125zm-17.875.1875-.1875.0625c1.57402,2.82218 2.59347,5.64657 3.71875,8.46875l.0625-.09375c-1.09811-2.7867-2.05329-5.54021-3.59375-8.4375zm-3.90625.75-.0625.28125c4.70031,5.80342 5.72394,12.80112 7.125,19.65625h.1875c-1.39248-6.81312-2.35019-13.88776-7.25-19.9375zm27.4375,1.15625 5.03125,7.65625 .1875-.0625-5.09375-7.5625-.125-.03125zm-7.1875,2.28125-.1875.03125 3.3125,8.53125 .125-.0625-3.25-8.5zm-20.375.125c-1.44475,2.53374-2.70504,5.1376-3.5625,7.90625l.21875-.1875c.7233-2.79817 2.11432-5.26739 3.53125-7.71875h-.1875zm-4.09375.53125c-2.36688,2.12874-3.81219,4.42294-5.65625,6.65625l.1875.09375c1.69354-2.26636 3.21955-4.56352 5.46875-6.71875v-.03125zm37,.0625-.15625.0625 3.15625,3.40625c.05032-.02027.095-.06093.15625-.09375l-3.15625-3.375zm3.15625,3.375 .03125.03125c.68302-.46239.2933-.20518-.03125-.03125zm-12.65625-.71875 3.4375,5.5h.21875l-3.59375-5.5h-.0625zm-14.71875.3125-.125.0625c2.08776,3.81194 2.49957,7.77768 3.8125,11.71875l.21875-.0625c-1.2982-3.9073-1.95685-7.81145-3.90625-11.71875zm10.25.65625c1.14292,2.63885 2.33198,5.15563 2.90625,8.125l.1875-.0625c-.62376-2.68245-1.80452-5.38005-2.875-8.0625h-.21875zm-22.15625.75c-1.34885,1.6677-2.80412,3.16533-3.9375,5.15625l.15625.09375c.94284-2.15277 2.49164-3.55414 3.875-5.15625l-.09375-.09375zm5.375.09375c.19099,3.25034-.57497,6.32286-.90625,9.46875h.1875c.28217-3.11606.95155-6.04833.8125-9.375l-.09375-.09375zm11.71875,1.03125-.21875.0625c1.01279,2.25274 2.36015,4.30475 2.84375,6.875l.09375-.0625c-.22881-2.38377-1.75799-4.5958-2.71875-6.875zm-14.375.4375-1.75,7.4375 .1875.03125 1.75-7.25-.1875-.21875zm34.1875,1.375c.25505-.0204.53251-.00453.8125,0 .76843,4.07954.9516,7.89355.5625,12.09375l-3.21875,1.53125-.125-.125-1.46875.8125-.4375-10.375-6.09375,2.53125 .5,10.78125-1.09375.5h-.03125v.03125l-4.28125,2.03125c.35297-1.78652.06778-3.65323-1.125-5.15625-.75747-.71345-1.55415-.98993-2.34375-.96875-.38739-.15185-.68396-.07319-.9375-.09375-1.03248.03451-1.63468.54299-2.375,1.1875-.5685.57922-2.11491,2.14791-2.375,3.15625-.19981,1.05861-.52162,1.79707-.21875,3.6875 .10694.98033.33974,1.73132.75,2.28125l-2.9375,1.375-.15625-14.09375c.33706-.01539.53035.14584.90625.03125 .42289-.12891.59075-.99214 1-1.15625 .3996-.11563 1.03884.49683 1.4375.375s.82105-1.09107 1.21875-1.21875 .79078.57068 1.1875.4375 .91679-1.11166 1.3125-1.25 .73031.26814 1.125.125 .95011-1.13366 1.34375-1.28125 .54492.83919.9375.6875 1.046-1.00082 1.4375-1.15625 .51586.37758.90625.21875 .95449-.86937 1.34375-1.03125 .61188.22707 1,.0625 .8318-.80183 1.21875-.96875 .70799.13766 1.09375-.03125 .83419-1.07944 1.21875-1.25 .71042.42185 1.09375.25 .74292-1.07721 1.125-1.25c.64987-.43105 1.53827.03455 2.15625-.34375s.73003-1.37802 1.3125-1.71875 1.14417-.24417 1.6875-.5625c.13583-.07958.32343-.13962.53125-.15625zm-42.1875,3.15625c.03856.27678.05745.5666.21875.71875 .29839.28148 1.00086-.07536 1.3125.1875s.23855,1.12841.5625,1.375 1.35217.29857 1.6875.53125 .24798.84137.59375,1.0625 1.26972.06932 1.625.28125-.14512.6074.21875.8125 1.34723-.01312 1.71875.1875 .15302.8015.53125,1 1.24098.08251 1.625.28125 .26738.70491.65625.90625 1.70096.23121 2.09375.4375c.43918.05156.62465.77108 1.0625.75 .35795-.01723.89325-.26181 1.3125-.40625l-.125,13.90625c-5.16472-2.93983-10.44501-5.29033-15.15625-9.15625-.0061-.66749-.04377-1.42184-.0625-2.125 .20122-.43292.24629-.58154 0-.875-.09863-3.35597-.23589-6.88058.125-9.875zm46.3125.84375 1.78125,1.59375-.46875-.0625-1.59375-1.28125 .28125-.25zm-.75.5625 43.65625,33.3125-.21875.21875-43.8125-33.15625 .375-.375zm-7.625.0625 .25,10.03125-.4375.1875-.6875-8.84375-3.59375,1.625 .375,9.09375-.5625.25-.375-10.125 5.03125-2.21875zm-25.375.03125c.21199,1.33765.15852,2.66235-.21875,4l.28125.03125c.17448-1.30273.43232-2.58463.15625-4l-.21875-.03125zm32.25.5625 43.8125,33.3125-.0625,1.1875-.875-.5625-.03125-.71875-.8125-.15625-.3125.25-42.0625-32.03125 .34375-1.28125zm-43.03125.6875-.4375,7.03125-.4375-.25v2.5625l8.1875,4.4375 .59375.3125 .46875-2.21875-.78125-.5625 .625-7.09375-8.21875-4.21875zm34.96875.53125 .53125,8.53125 .125.0625-3.1875,1.5-.40625-8.78125 2.9375-1.3125zm-34.65625.03125 7.53125,3.875-.59375,6.625-.375-.25 .375-6.59375-6.46875-3.15625-.25,6.46875-.53125-.28125 .3125-6.6875zm47.71875.03125 1.78125,1.59375-.46875-.0625-1.59375-1.28125 .28125-.25zm-5.75.28125c.01163.05419.01838.10058.03125.15625l1.53125,1.15625-.03125.25-.96875.34375c-.32903.13849-.52183.31677-.65625.53125 .04029-.81909.06349-1.63022.09375-2.4375zm-41,1 2.3125,1.25-.15625,2.1875-2.25-1.0625 .09375-2.375zm-5.5.25 .34375.21875-1.8125,1.34375-.3125-.125 1.78125-1.4375zm.71875.21875v.5625l-1.75.71875 1.75-1.28125zm47.65625.09375 1.46875,1.125v.15625l-1.46875-1.125v-.15625zm5.375,0 .40625.28125v.125l-.40625-.3125v-.09375zm-5.9375.25 40.1875,30.6875-.25.1875-40.3125-30.5 .375-.375zm7.9375.53125 1.78125,1.59375-.46875-.0625-1.59375-1.28125 .28125-.25zm-47.59375.09375 .90625.46875-.1875,2.09375 .34375.5625 1.5625.71875c-.02195.32067-.01123.64808-.03125.96875l-1.59375-.78125v-.125l-.53125.25-.09375,2.03125c-.27146-.15017-.50094-.25978-.78125-.40625l.125-2-.34375-.5625-2.15625-1.09375 .03125-.78125 2.21875,1.03125 .5-.15625 .03125-2.21875zm38.90625.03125 15,11.40625-.6875.5-.375-1.21875-.84375.125-.65625-.8125h-.84375l-.5-1.09375-.6875.21875-.90625-.875-.21875.34375-9.625-7.3125 .34375-1.28125zm-46.3125.03125 .3125.3125-31.5,13.5625-.28125-.5625 31.46875-13.3125zm-4.90625.3125 .34375.21875-1.8125,1.34375-.3125-.125 1.78125-1.4375zm54.3125.09375 .53125.40625v.1875l-.53125-.40625v-.1875zm5.25,0 1.53125,1.15625v.03125l-1.53125-1.15625v-.03125zm-53.71875.09375-.25.90625-31.28125,13.84375-.03125-.03125-.03125.03125-.40625.1875c-.60886-.32902-.6142-.4019-.0625-1.0625l32.0625-13.875zm-5.125.0625v.71875l-1.8125.78125v-.1875l1.8125-1.3125zm12.84375.03125 1.5.8125c-.00091.67428-.04863,1.3484-.09375,2.03125l-1.5625-.75 .15625-2.09375zm41.59375.46875 .53125.40625v.15625l-.5-.375-.03125-.1875zm-49.15625.40625c.02616.58096.06739,1.16885.09375,1.75l-.46875-.5-.40625.1875-.0625-.875 .75-.34375c.03838-.09799.05898-.14016.09375-.21875zm55.40625.21875 .40625.28125v.1875l-.40625-.3125v-.15625zm-5.375.03125 1.46875,1.125v.1875l-1.46875-1.125v-.1875zm-60.21875.25 .34375.21875-1.8125,1.34375-.3125-.125 1.78125-1.4375zm9.09375.15625v.90625l-1.8125.78125v-.875l1.8125-.8125zm-8.34375.0625v.875l-1.84375.78125v-.3125l1.84375-1.34375zm1.53125.03125 .25.09375-.25.09375v-.1875zm11.40625.3125 2.15625,1.03125-.15625,1.9375c-.71018-.35632-1.43464-.68283-2.0625-.875l.0625-2.09375zm54.53125.4375 1.78125,1.59375-.46875-.0625-1.59375-1.28125 .28125-.25zm-6.21875.09375 .53125.40625v.1875l-.53125-.40625v-.1875zm-55.09375.03125v.875l-.4375.1875v-.84375l.4375-.21875zm49.78125.09375 1.40625,1.09375-.03125,1.40625-1.40625-1.15625 .03125-1.34375zm-47.25.1875 .3125.3125-6,2.59375-.1875-.28125-.3125.5-2.09375.90625-.25-.1875-.34375.40625-2.53125,1.125-.09375-.03125-.0625.09375-2.28125.96875-.3125-.28125-.34375.5625-.90625.40625-.1875-.09375-.1875.25-1.09375.46875-.1875-.0625-.09375.1875-3.4375,1.46875-.375-.4375 20.96875-8.875zm-3.21875.03125 .03125.84375-1,.40625-.0625-.78125 1.03125-.46875zm61.65625.125 1.53125,1.15625v.0625l-1.53125-1.15625v-.0625zm-5.03125.1875 .5625.40625-.03125.1875-.5-.375-.03125-.21875zm-64.75.15625 .40625.125-.40625.1875v-.3125zm12.1875.03125c.00389.0944.02758.18688.03125.28125l-.15625.59375-5.5625,2.4375h-.21875l-.375-.5625 6.28125-2.75zm-5.34375.0625v.84375l-1.8125.75v-.78125l1.8125-.8125zm-9.5.03125 .34375.21875-1.8125,1.34375-.3125-.125 1.78125-1.4375zm.71875.21875v.8125l-1.8125.75v-.21875l1.8125-1.34375zm21.3125.125 1.59375.75c-.04212.75535-.06851,1.50571-.03125,2.25-.4396-.24176-1.07786-.62408-1.6875-.96875l.125-2.03125zm46.25.03125 1.46875,1.125v.21875l-1.46875-1.125v-.21875zm-51.40625.09375 8.125,4.40625-.375,1-8-4.09375 .25-1.3125zm46.09375.03125 .65625.5v.875l-.6875-.03125 .03125-1.34375zm-24.625.03125c-1.19364.34032-2.38475,1.29185-3.1875,2.375-1.498,2.43947-1.85522,5.60376 0,7.9375 .94215.89033 2.04351,1.10867 3.03125.90625-.26024.0727-.51505.13504-.8125.15625-1.64146-.13641-2.48673-.78811-3.3125-2.1875-.5655-1.26128-.73624-3.13585-.28125-4.96875 .4407-1.28549 1.36016-2.38562 2.28125-3.1875 .64327-.56002 1.3988-.94917 2.28125-1.03125zm.6875.15625h.28125c.68435.02662 1.37015.26981 2,.8125 1.84498,2.20398 1.38896,5.24385.0625,7.5625-1.35513,2.04704-4.02262,3.37238-5.9375,1.5-1.86061-2.20502-1.3926-5.17693-.0625-7.5 .86224-1.30832 2.2478-2.30481 3.65625-2.375zm35.25.125 .40625.28125v.21875l-.40625-.3125v-.1875zm-18.6875.0625 .71875.90625-7.5625,3.5625-1.28125-.625 8.125-3.84375zm-48.28125.0625v.78125l-.4375.1875v-.75l.4375-.21875zm31.53125.25c-.14834.00561-.2792.0091-.4375.03125-2.59952.81436-3.5931,3.21037-3.75,5.75 .02212,2.36342 1.25691,4.35278 3.78125,4 2.60031-.81338 3.62405-3.3642 3.78125-5.90625-.02038-2.22428-1.14989-3.95907-3.375-3.875zm-32.21875.0625 .03125.75-1.03125.46875-.03125-.75 1.03125-.46875zm32.25.0625c2.10601-.12514 3.00314,1.95618 3.125,3.875-.02502-.12249-.10752-.21681-.1875-.21875l-.1875.0625c.00037-.08423.00173-.21149 0-.25-.05371-.65308-.30278-1.2285-.65625-1.75l.1875-.25c.03473-.2885-.55499-.95851-.9375-.84375l-.09375.1875c-.55305-.50396-1.22476-.60618-1.9375-.65625 .21188-.11217.45444-.13101.6875-.15625zm-.8125.28125h.21875c.07097.0035.1514.02281.21875.03125l-.1875,3.0625 .03125.03125-.21875.03125c.04075-1.12621.01291-1.97696-.0625-3.15625zm-.1875.03125c.02398,1.05937.066,2.16413.09375,3.21875 .03255.09694-.44265.29979-.40625.0625l-.3125-2.9375c.19452-.13574.40619-.23593.625-.34375zm-24.1875.03125 .03125,1.34375-1.8125.78125-.03125-1.3125 1.8125-.8125zm25.0625,0c.51535.1136.91097.35906 1.3125.59375l-1.375,2.5c-.10499-.02155-.15218-.02935-.21875-.03125l.28125-3.0625zm31.3125.0625 .53125.40625v.21875l-.53125-.40625v-.21875zm-64.71875.09375v.75l-1.8125.78125v-.71875l1.8125-.8125zm59.375.03125 1.4375,1.09375-.03125,1.25-1.40625-1.15625v-1.1875zm-69.5625.03125 .34375.21875-1.8125,1.34375-.3125-.125 1.78125-1.4375zm2.9375.03125 .3125.09375-.3125.15625v-.25zm39.03125.1875 .3125,2.75c-.14979-.06026-.2125.10625-.3125.15625l-1.375-1.3125c.34991-.61594.80877-1.16412 1.375-1.59375zm-41.21875.03125v.9375l-1.84375.8125v-.4375l1.84375-1.3125zm60.90625,0 .0625,1.03125-7.78125,3.6875-.09375-1.125 7.8125-3.59375zm-16.40625.03125c.29938-.07088.63546.512.5.6875l-1.6875,2.09375c-.13614-.09362-.24959-.16284-.375-.1875 .53141-.85648.95168-1.82121 1.5625-2.59375zm36.75.0625 1.78125,1.59375-.46875-.0625-1.59375-1.28125 .28125-.25zm-69,.125 .75,1.1875 .875.09375 .71875.9375 .71875-.25 .84375,1.28125 .84375-.15625 .71875,1.1875 .875-.25 .71875,1.25 .875.03125 .6875,1 .875-.0625 .71875,1.09375 1-.21875 .5625,1.21875 .96875-.40625 .625,1.4375 .875.1875 .6875.84375 .9375.15625 .65625.84375 1.09375-.59375 .46875,1.625 .75-.0625 .8125,1.09375 .9375-.25 .65625,1.25 .875-.1875 .6875,1.21875 .84375-.0625 .75,1.09375 .65625.4375-.625.34375-.75,1.0625-.65625-.40625-.71875.6875-.6875-.03125-.625.6875-.8125-.03125-.625.6875-.78125-.9375-.65625,1.5625-.78125.03125-.65625.71875-.75-.71875-.71875,1.34375-.6875-.03125-.71875.625-.71875.03125-.75.71875-.65625-.3125-.71875.59375-.5625-.71875-.84375,1.375-.71875-.0625-.6875.71875-.71875.78125-.71875-.125-.84375.75-.625-1-.65625,1.75-.71875-.15625-.59375.625-.71875-1.4375-.84375.9375-.6875-.8125-.8125.1875-.75-1.03125-.78125-.0625-.5625-1.59375-1.15625.46875-.46875-1-.9375-.09375-.5625-.96875-.96875-.1875-.53125-.90625-.875.125-.625-1.21875-.875-.25-.5625-1.59375-.96875.5-.5625-.84375-1.0625-.1875-.4375-1.375-1.0625.28125-.34375-1.28125-.84375.3125-.75-1-1.09375-.34375-.40625-.75-1.09375-.34375-.4375-.96875-1.0625-.03125-.375-.84375-1.0625-.25-.65625-.875 .5625.0625 .34375-.65625 .21875-.09375 .78125.15625 .375-.65625 .125-.0625 .875.09375 .34375-.625 .21875-.09375 .78125.125 .03125-.09375-.625-.125 .8125-.34375-.1875.46875 .34375-.53125 .125-.1875 .21875.03125 .65625.15625 .53125-1.5 .5625.59375 .25.28125 .59375-.71875 .78125.125 .59375-.53125 .75-.09375 .5625-.90625 .8125.3125 .53125-.96875 .8125.34375 .625-1.09375 .75.5 .625-.59375 .71875-.03125 .6875-.6875 .6875.09375 .65625-.59375 .6875-.03125 .71875-1.09375 .34375.25 .0625.09375 .0625-.03125 .1875.15625 .5-.4375 .28125-.125 .5625-.03125 .71875-1zm62.75.03125 1.1875.875-.03125.21875-1.125-.875-.03125-.21875zm-59.4375.28125v.8125l-.40625-.03125v-.625l.40625-.15625zm65.34375.125 1.53125,1.15625v.15625l-1.53125-1.15625v-.15625zm-73.6875.03125v.71875l-.4375.1875v-.71875l.4375-.1875zm-.6875.3125 .03125.6875-1.40625.59375-.03125-.65625 1.40625-.625zm38.46875,0c.32567.50109.44697,1.07393.5,1.71875 .01468.09243.00156.14583 0,.21875l-1.875.4375c-.04194-.15796-.12828-.28385-.21875-.4375l1.59375-1.9375zm25.5625.03125 .65625.5v.71875l-.6875-.03125 .03125-1.1875zm5.9375.34375 1.46875,1.125v.25l-1.46875-1.125v-.25zm-79.15625.28125 .46875.15625v.0625l-.46875.21875v-.4375zm42.4375,0 1.6875,1.59375c-.00767.26236-.00869.54147-.25.53125l-1.75-1.46875c.08801-.21834.20152-.45114.3125-.65625zm-34.9375.09375v.65625l-1.8125.78125v-.625l1.8125-.8125zm-10.375.03125 .34375.21875-1.8125,1.34375-.3125-.125 1.78125-1.4375zm88.28125.15625 .40625.28125v.3125l-.40625-.3125v-.28125zm-87.53125.0625v1l-1.84375.78125v-.4375l1.84375-1.34375zm78.40625.28125 .71875.8125h.75l.375,1 1.03125-.09375 .46875.90625 .875-.1875 .4375,1.25 1.09375-.65625 .21875,1.71875 .96875-.40625 .34375,1.46875 .9375-.09375 .375,1.15625 .8125-.125 .5,1.1875 .75.09375 .53125,1.46875 .09375-.0625 .03125.09375 .3125-.28125 .53125-.3125 .40625,1.125 .90625-.125 .40625,1.1875 .90625-.0625 .40625,1.15625 .90625-.09375 .40625,1.15625 .90625.03125 .40625,1.03125 .90625-.21875 .40625,1.28125 .84375-.0625 .46875,1.125 .96875-.125 .3125,1.09375-1.125-.3125-.34375.96875-1.09375-.875-.34375,1.375-.84375-.40625-.40625,1.0625-.8125-.25-.5.75-.9375-.9375-.53125,1.125-.75-.125-.4375.9375-.96875-.96875-.53125,1.09375-.65625.21875-.59375.8125-.75-.46875-.625.6875-.6875-.5-.5625.90625-.75-.03125-.5625.9375-.75-1.0625-.625,2.03125-.78125-.46875-.53125.4375-.6875-1.0625-.5625,1.25-.75-.375-.53125.90625-.90625-1.84375-.71875,2.9375-.53125-1.21875-.75.4375-.6875-1.875-.625.71875-.59375-1.125-.78125,1.0625-.46875-2.15625-.96875.46875-.65625-1.71875-.6875.5625-.96875-1.53125-.71875.4375-.71875-1.46875-.8125.3125-.625-1.34375-.65625.375-.8125-1.40625-.5625.46875 .5-.03125 .96875,1.28125 .4375-.46875 .6875,1.375 .84375-.3125 .65625,1.34375 .8125-.21875 .78125,1.375 .78125-.40625 .59375,1.53125 .875-.21875 .6875,2.1875 .65625-1.1875 .8125,1.0625 .46875-.71875 .65625,1.75 .8125-.21875 .5625,1.09375c-.17995,2.2404.69488,3.6735-.5625,6.71875-7.10977-6.21292-15.07611-11.56995-22.625-17.34375-1.23862-2.33491-.27083-4.39583-.3125-6.53125l.03125-.03125 1.375.3125 .46875,1.40625 .9375-.90625 .46875,2.0625 .9375-.21875 .625,1.3125 .78125-.1875 .84375,1.28125 .59375-.3125 .71875,1.53125 .15625-.125-.78125-1.75-.59375.5625-.84375-1.59375-.71875.4375-.71875-1.46875-.90625.28125-.53125-2.28125-.84375,1.1875-.46875-1.46875-1.375-.21875 .6875-.8125 .84375.5625 .65625-.75 .65625.6875 .8125-1.5 .625.46875 .8125-1.09375 .9375.53125 .625-1 .75.875 .78125-1.5 .84375.5 .75-.5 .75-.03125 .75-.96875 .75.40625 .71875-1.4375 .75.65625 .75-.53125 .875.375 .6875-.71875 .71875.4375 .84375-.9375 .75.40625 .6875-1.0625 .90625.375 .75-.9375 .75.375 .65625-.875 .09375-.09375h.03125l.53125.34375 .3125-.5625 .46875-.75zm-15.53125,15.375 .53125-.375 .84375,1.3125 .625-1.09375 .875,1.96875h.09375l-.90625-2.25-.6875,1.125-.71875-1.40625-.65625.71875zm14.21875-15.28125 .71875.5625-.25.375-.46875-.1875v-.75zm-32.90625.09375 1.34375,1.09375c-.03198.06408-.05002.15204-.0625.21875l-.03125.15625c-.00472.07488.00535.14341 0,.21875l-1.65625.15625c.23748-.90044.0274-.85507.40625-1.84375zm-36.75.25v.625l-.4375.1875v-.625l.4375-.1875zm75.625.03125 .53125.375v.25l-.53125-.40625v-.21875zm-36.75.03125v.15625c.20021.29957.45232.07846.59375-.09375h.09375c-.1541.11199-.29642.23429-.4375.40625-.36891.63618-.40926,1.32047-.03125,1.9375l.03125.03125c.09078.06919.19541.11877.28125.15625l-.28125.03125c.01734-.08261.00359-.16444-.03125-.21875-.10453-.16294-.38991-.2135-.5-.25l-.15625.25c-.07621-.1049-.14002-.22419-.1875-.34375l.3125-.0625c.17333-.26958.0245-.52126-.09375-.65625l-.34375.03125c-.02085-.12496.0236-.22955.0625-.34375l.09375-.0625 .3125.25c.18268-.13753.38211-.41333.3125-.8125l-.28125-.25 .25-.15625zm1.03125.03125c.22538-.02837.49785.08984.71875.21875 .14193.47396.50639.83924-.1875,1.8125-.40128.38702-.69358.36633-1.1875.25-.35469-.5087-.22335-1.31429.03125-1.84375 .157-.21633.39962-.40913.625-.4375zm9.03125.09375 .9375.5625 .25,1.0625-1.3125-.46875 .125-1.15625zm-49.625.125 .03125.59375-1.6875.71875-.03125-.5625 1.6875-.75zm43.84375.03125c.12548.09673.23062.52003-.0625.78125h-2.09375c-.03944-.16383.07374-.24135-.03125-.34375l2.1875-.4375zm39.6875.15625 1.78125,1.59375-.46875-.0625-1.59375-1.28125 .28125-.25zm-43.0625.15625c-.25095.1986-.40396.45185-.40625.71875s.14093.52987.34375.78125h.4375c.55925-.42261.47649-.97586.3125-1.5h-.6875zm36.6875,0 1.40625,1.0625v.25l-1.375-1.0625-.03125-.25zm-36.1875.1875c.08354.06083.10334.30799.125.46875 .02071.15373-.0711.42331-.21875.59375l-.40625.09375c-.13337-.18451-.1887-.45427-.1875-.59375 .00126-.14636.11739-.38969.28125-.53125l.40625-.03125zm3.125.03125c-.08702.89132-.3156,1.72876-.71875,2.5 .1939-.6754.29277-1.36257.34375-2.0625h.21875c.07321-.12456.12438-.27212.15625-.4375zm-53.5.09375 .46875.15625v.09375l-.46875.1875v-.4375zm92.59375.09375 1.53125,1.15625v.3125l-1.53125-1.1875v-.28125zm-85.125.09375v.59375l-1.8125.78125v-.5625l1.8125-.8125zm-10.5.09375 .34375.21875-1.8125,1.34375-.3125-.125 1.78125-1.4375zm54.125,0 1.90625.0625c-.01068.3235-.03859.6494-.09375.96875l-.96875.46875-1-.8125c.12444-.39843.15523-.38072.15625-.6875zm-53.40625.25v.875l-1.8125.78125v-.34375l1.8125-1.3125zm50.78125.0625c.13377.12119.17614.25381.03125.375l-2.0625.5c-.03915-.22143-.03467-.49605-.03125-.71875l2.0625-.15625zm39.84375.4375 1.46875,1.09375v.28125l-1.46875-1.125v-.25zm-37.46875.03125 1.75,1.4375c-.07629.20112-.15198.40876-.25.59375l-1.6875-1.78125c.03938-.04152.08653-.11102.125-.15625l.0625-.09375zm-45.59375.125v.53125l-.4375.1875v-.53125l.4375-.1875zm42.96875.03125c.04515.10118.10513.2134.1875.34375l-.03125.15625c-.4214.62617-.83649,1.19102-1.3125,1.8125-.30917-.54382-.49575-1.18505-.59375-1.84375l1.75-.46875zm.65625.15625c.15919-.00507.26664.22964.125.34375l-1.46875,2.46875c-.1408-.15024-.26213-.31931-.375-.5 .56652-.67173 1.06708-1.5005 1.5625-2.21875 .051-.0672.10319-.09206.15625-.09375zm45.5625,0 .40625.28125v.4375l-.40625-.3125v-.40625zm-43.90625.03125 .65625.71875-.96875.46875-.0625-.90625c.13563-.05918.25035-.16567.375-.28125zm-45.96875.09375 .03125.5-1.625.6875-.03125-.46875 1.625-.71875zm45.40625.25 .28125,3.0625c-.09473.03982-.18231.05931-.28125.09375-.11858.02225-.23183.05278-.34375.0625l-.03125-3.1875 .375-.03125zm-.5625.03125 .03125,1.1875-1.3125.625 1.03125-1.78125 .25-.03125zm3.375.09375c-.04366.16687-.09985.3391-.15625.5l-.34375-.28125 .5-.21875zm34.21875.09375 1,.75-.71875.34375-.28125-1.09375zm-78.90625.09375-.0625.125-.65625.15625 .71875-.28125zm-13.03125.125 .46875.15625-.46875.1875v-.34375zm7.625.125v.5l-1.8125.78125v-.46875l1.8125-.8125zm87.40625.0625 .53125.40625v.25l-.5625-.40625 .03125-.25zm-82.96875.09375-.40625.34375-.25-.0625 .65625-.28125zm44.40625,0 .71875.75c-.4886.64401-1.09836,1.18144-1.875,1.53125l-.125-1.6875 1.28125-.59375zm-47.0625.03125-.25.6875-6.6875,2.875-.09375-.03125v.09375l-1.34375.5625-.53125-.4375 8.90625-3.75zm83.65625.3125 23.59375,17.9375-.25.1875v.40625l-.65625.28125-.4375-.3125v-.375l-.71875-.15625-6.59375-5.03125-.4375-1.1875-.8125.28125-.59375-1.0625-.75-.03125-.65625-1.1875-.65625.125-.5625-1-.75-.09375-.59375-1.03125-.75-.0625-.5625-1.125-.75.03125-.53125-1.03125-.8125-.0625-.59375-1.15625-.71875.5625-.25-.1875-.46875-1.1875-.8125-.34375-.40625-.875-.71875-.0625-.46875-.90625-.84375-.1875-.4375-1.15625zm9.1875.09375 1.78125,1.59375-.46875-.0625-1.59375-1.28125 .28125-.25zm-6.375.125 1.28125.9375-.03125.28125-1.21875-.9375-.03125-.28125zm-85.4375.125-.125.25-.09375-.125 .21875-.125zm-5.03125.15625v.46875l-.4375.1875v-.46875l.4375-.1875zm48.96875.125 .03125,1.53125c-.73962.02737-1.32541-.20934-1.78125-.625l.03125-.0625 1.71875-.84375zm47.53125.03125 1.53125,1.15625v.28125l-1.53125-1.1875v-.25zm-97.1875.125 .03125.46875-1.78125.75-.03125-.40625 1.78125-.8125zm4.25.1875-.09375.28125-.34375-.0625 .4375-.21875zm-10.6875.15625c.17164.01065.38826.224.53125.25-.54233.67884-.21882.79268-.28125,1.5625-.11799-.04862-.42749-.10395-.46875-.15625-.36183-.45862-.09982-1.02236.0625-1.59375 .04083-.05121.09903-.06606.15625-.0625zm99.21875.3125 1.46875,1.09375-.03125.28125-1.46875-1.125 .03125-.25zm-94.84375.28125v.40625l-1.78125.75v-.375l1.78125-.78125zm101.09375.21875 .40625.28125v.40625l-.40625-.3125v-.375zm-97.34375.1875-.21875.34375-.375-.09375 .59375-.25zm-5.9375.5625v.375l-.28125.09375-.15625-.125v-.15625l.4375-.1875zm4.53125.03125-.15625.3125-.40625-.0625 .5625-.25zm94.28125.0625 .53125.40625v.3125l-.5625-.4375 .03125-.28125zm-99.53125.1875 .03125.03125 .03125.03125 .25.1875 .3125.28125 .90625.8125 .25.25-.46875-.0625-1.59375-1.28125 .28125-.25zm3.875.34375-.21875.46875-.375-.1875 .59375-.28125zm96.5.125 1.40625,1.0625v.3125l-1.375-1.0625-.03125-.3125zm-101.125.09375 .125.09375v.65625l-.5-.375 .375-.375zm.40625,0 1.53125,1.15625-.21875,9.25-1.40625-1.15625 .09375-9.25zm3.25.25 .15625.03125 .53125,1.03125 1.125.3125 .40625.78125 1.21875.03125 .3125,1.09375 1.09375.28125 .4375.8125 1.125.28125 .75,1 .8125-.28125 .375,1.21875 1.03125-.1875 .5,1.28125 .9375.3125 .59375.8125 1.0625-.46875 .4375,1.5625 .90625.25 .625,1.1875 .875-.03125 .65625.8125 .8125.125 .71875,1 .90625.09375 .625,1 .96875-.5 .5625,1.59375 .84375.15625 .6875.96875 .8125-.1875 .71875,1.28125 .78125-1.28125 .6875,1.5c.15723,1.0946.26745,2.2254.1875,3.34375l-1.8125-1.375v-.9375l-2.5-2.09375-.34375.4375v.40625l-1.53125-1.125v-1l-2.5-2.09375-.34375.4375v.46875l-1.40625-1.03125v-.90625l-2.5-2.09375-.34375.4375v.375l-1.53125-1.125v-.84375l-2.5-2.09375-.34375.4375v.3125l-1.28125-.96875v-.8125l-2.5-2.09375-.34375.4375v.28125l-.65625-.46875v-.78125l-2.28125-1.875-.53125-.15625c-.01256-.45769-.0513-.96542-.03125-1.375zm104.46875.0625 1.78125,1.59375-.46875-.0625-1.59375-1.28125 .28125-.25zm-104.78125.03125-.03125,1.03125-.3125.125v-.34375l-.53125-.4375 .875-.375zm-4.09375.3125 .84375.625-.03125,1.53125-1.15625-.875 .34375-1.28125zm108.53125.21875 1.53125,1.15625v.25l-1.53125-1.15625v-.25zm-4.90625.34375 1.46875,1.125-.03125.28125-1.46875-1.09375 .03125-.3125zm-100.625.0625 .40625.28125 .0625,9.03125-.6875-.03125 .21875-9.28125zm1.4375.40625h.03125v.21875l-.03125.03125c.00023-.07935.00194-.16577 0-.25zm-.40625.1875v.09375l-.0625-.0625 .0625-.03125zm.96875.0625 1.78125,1.59375-.46875-.0625-1.59375-1.28125 .28125-.25zm105.375.21875 .40625.28125v.40625l-.40625-.3125v-.375zm-106.625.125 .625.46875v.625l-.625-.46875v-.625zm.90625.21875 1.53125,1.15625-.21875,9.25-1.40625-1.15625 .09375-9.25zm100.75.0625 .53125.40625v.34375l-.5625-.4375 .03125-.3125zm-48.78125.09375c-1.02584.45741-1.24247,1.40035-1.09375,2.5625l1.34375,1.375 .125,8c-1.9875.87262-1.97507,1.54658-2.46875,2.3125l.59375,4.46875c.53391.09675 1.06233.23889 1.59375.34375l-6.40625,2.53125-.375,8.6875 6.5,5.5625 9.1875-4.21875-.1875-8-5.59375-4.6875c.25495-.08901.50999-.20175.78125-.34375l.4375-4.5-.25-.15625c-.7964-1.52747-2.06569-1.63626-3.1875-2.1875l-.21875-7.28125 8.875,8.96875c-.53914.35324-1.06722.15149-1.5625-1.46875l-.71875-.375c.12087,1.89465.64058,3.67691 1.9375,5.21875l-.09375,10.5625c.98557.10674 1.98317.53132 2.96875-.125-.47535-3.94866-.49975-7.89509-1.5-11.84375l.3125-.625 9.09375,9.21875c.71847.12038 1.02197-.60825 1.40625-1.15625l-9.4375-10.03125 .78125-1.5-.75-.59375c-.33472.16658-.68992.56736-1.03125,1.03125l-9.84375-10.46875c.09776-.38667-.12968-.6643-.5-.5l-.71875-.78125zm-.03125.4375 .625.65625c-.05971.60034-.32608,1.2479-.34375,2l-1.1875-1.21875 .90625-1.4375zm49.65625.125 1.90625,1.4375v.34375l-1.875-1.4375-.03125-.34375zm-102.5.28125 .59375.46875-.03125,1.5-.5625-.4375v-1.53125zm2.75.28125 .40625.28125 .0625,9.03125-.6875-.03125 .21875-9.28125zm107,.03125 1.78125,1.59375-.46875-.0625-1.59375-1.28125 .28125-.25zm-112.9375.21875 .21875.15625-.03125.65625-.5625-.4375 .375-.375zm57.1875.28125 9.6875,10.4375c-.25871.36094-.49313.72208-.75,1l-9.3125-9.46875 .375-1.96875zm55.40625.0625 1.53125,1.15625v.28125l-1.53125-1.15625v-.28125zm-104.65625.1875 1.78125,1.59375-.46875-.0625-1.59375-1.28125 .28125-.25zm-8.6875.125 .9375.6875-.0625,1.53125-1.21875-.9375 .34375-1.28125zm108.6875.21875 1.46875,1.125-.03125.34375-1.46875-1.125 .03125-.34375zm-101.25.03125 .625.46875v.59375l-.625-.4375v-.625zm.90625.1875 1.53125,1.15625-.21875,9.25-1.40625-1.15625 .09375-9.25zm106.84375.53125 .40625.28125v.4375l-.40625-.3125v-.40625zm-110.84375.40625 .125.09375v.21875l-.125-.09375c-.00506-.07494.00432-.14656 0-.21875zm3.09375.09375 .59375.4375-.03125,1.53125-.5625-.40625v-1.5625zm103.03125.125 .53125.40625v.34375l-.5625-.40625 .03125-.34375zm-100.28125.125 .40625.28125 .0625,9.03125-.6875-.03125 .21875-9.28125zm-6.21875.03125 .5.375-.03125.65625-.46875-.375v-.65625zm107.34375.5 1.65625,1.25-.03125.34375-1.59375-1.25-.03125-.34375zm7.125.375 1.78125,1.59375-.46875-.0625-1.59375-1.28125 .28125-.25zm-66.65625.15625c.03323.57837.12619,1.17903.25,1.8125 .00189.00969-.0019.02155 0,.03125 .26786,1.90969.33412,3.69769.03125,5.28125-.0616.14823-.13905.29067-.21875.4375l-18.5625,9.03125-.34375-.25v-.90625l-2.5-2.09375-.34375.4375v.375l-.03125-.03125c.02647-1.23458-.08189-2.46777 0-3.65625l.4375-.53125 .625.0625 .78125-1.53125 .625.84375 .71875-.6875 .71875.03125 .75-.6875 .75-.78125 .6875.03125 .84375-1.21875 .59375.65625 .65625-.625 .71875.28125 .75-.75 .6875.09375 .78125-.75 .625.0625 .8125-1.34375 .625.6875 .8125-.78125 .625.09375 .84375-1.46875 .5625.8125 .6875-.6875h.75l.75-.71875 .6875.0625 .65625-.59375 .8125.71875 .625-1.5 .71875-.25zm-40.84375.125 1.25.9375v.59375l-1.25-.9375v-.59375zm-6.96875.09375 .4375.34375-.03125,1.5-.40625-.28125v-1.5625zm8.84375,0 1.78125,1.59375-.46875-.0625-1.59375-1.28125 .28125-.25zm105.28125.1875 1.53125,1.15625v.4375l-1.53125-1.15625v-.03125-.40625zm-105.625.375 1.53125,1.15625-.21875,9.25-1.40625-1.15625 .09375-9.25zm-5.03125.15625 .53125.375v.21875l-.5-.40625-.03125-.1875zm105.875.03125 1.46875,1.125-.03125.34375-1.46875-1.125 .03125-.34375zm-102.375.375 1.21875.90625-.03125,1.53125-1.1875-.90625v-1.53125zm-3.46875.28125 .5.375-.03125.65625-.46875-.375v-.65625zm112.46875.0625 .40625.28125v.5625l-.40625-.28125v-.03125-.53125zm-105.625.375 .40625.28125 .0625,9.03125-.6875-.03125 .21875-9.28125zm94.40625.1875 .9375.09375 .03125-.03125c.10904,1.84375 1.37103,3.6875.59375,5.53125-3.57974,2.35811-7.7883,3.12805-11.6875,4.6875-3.54348,1.85625-5.83344,4.04663-10.96875,5.46875 1.36441-2.19409.3588-4.6457.5625-6.96875h-.03125l.65625-2.3125 .78125,1.71875 .625-1.125 .65625.5625 .625-1.1875 .6875.71875 .625-.3125 .65625.53125 .71875-1.96875 .625,1.1875 .6875-1.25 .65625.03125 .625-.9375 .78125.65625 .53125-.90625 .71875.53125 .71875-.90625 .59375-.09375 .53125-1.09375 .84375,1 .625-.9375 .6875-.03125 .46875-1.0625 .90625.9375 .625-.65625 .71875.09375 .59375-1.03125 .75.46875 .375-1.28125 .96875.75 .5-.875zm6.375.0625 .53125.40625v.375l-.5625-.40625 .03125-.375zm-107.625.53125 .4375.34375-.03125,1.5625-.40625-.34375v-1.5625zm102.90625.0625 .65625.5v.59375l-.6875-.03125 .03125-1.0625zm5.5625.0625 1.78125,1.34375-.03125.375-1.71875-1.3125-.03125-.40625zm-100.875.28125 1.5,1.15625v.53125l-1.5-1.09375v-.59375zm2.125.21875 1.78125,1.59375-.46875-.0625-1.59375-1.28125 .28125-.25zm-6.25.125 1.15625.84375v.25l-1.125-.875-.03125-.21875zm5.90625.4375 1.53125,1.15625-.21875,9.25-1.40625-1.15625 .09375-9.25zm-5.875.28125 1.125.8125-.03125.625-1.09375-.8125v-.625zm4.09375.125 1.46875,1.125-.03125,1.5-1.4375-1.0625v-1.5625zm103,.125 1.46875,1.125-.03125.40625-1.46875-1.125 .03125-.40625zm-4.8125.53125 1.4375,1.09375-.03125,1.125-1.40625-1.15625v-1.0625zm-94.5625.21875 .40625.28125 .0625,9.03125-.6875-.03125 .21875-9.28125zm104.625.125v1.90625l-.5625-.03125c.27705-.71286.1019-1.25747.0625-1.84375l.5-.03125zm-112.34375.09375 1.0625.78125-.03125,1.53125-1.03125-.8125v-1.5zm109.59375.03125 .34375.21875-1.8125,1.34375-.3125-.125 1.78125-1.4375zm.71875.21875 .09375,8.03125-1.8125.78125-.09375-7.46875 1.8125-1.34375zm-6.28125.65625 .65625.5v.5625l-.6875-.03125 .03125-1.03125zm-95.5625.125 1.375,1.03125v.53125l-1.375-1v-.5625zm49.53125,0-1.8125,4.1875 1.40625,11.03125-2.03125.1875v-10.28125l-1.03125-1.53125-.78125-2.09375c1.43566,2.71881 1.68048.6958 2.59375.59375l1.65625-2.09375zm-47.53125.03125 1.78125,1.59375-.46875-.0625-1.59375-1.28125 .28125-.25zm-6.375.09375 1.40625,1.09375v.1875l-1.375-1.03125-.03125-.25zm106.40625.28125 .15625.15625-.125.0625-.03125-.21875zm-100.375.1875 1.53125,1.15625-.21875,9.25-1.40625-1.15625 .09375-9.25zm94.875,0 .09375.0625-.09375.09375v-.15625zm.21875.15625 .28125.21875-1.53125,1.15625-.3125-.125 .96875-.78125 .375.03125v-.34375l.21875-.15625zm6.0625,0-.25.90625-.46875.1875-.03125-.75 .75-.34375zm-107.15625.0625 1.375,1.0625-.03125.5625-1.34375-1v-.625zm42.875.0625c.91567-.04011 1.69872.8718 2.4375,1.6875-.70134-.11393-1.64408-.14593-2.65625-.15625-1.27815.10073-1.82416.58248-2.34375,1.0625l-.03125-.125c.00909-1.0381.67328-2.1602 2.09375-2.375 .16993-.07325.33951-.08672.5-.09375zm60.6875.03125 .46875.15625v6.65625l-.40625-.03125-.0625-6.78125zm-1.96875.21875 .4375.34375 .09375,7.34375-1.8125.78125-.09375-7.46875 1.375-1zm-97.25.0625 1.34375,1-.03125,1.53125-1.3125-.96875v-1.5625zm98.9375.28125v.4375l-1.03125.4375-.03125-.4375 1.0625-.4375zm-49.71875.34375 8.84375,9.5c-.0516.3859.0102.8852-.71875.59375l-8.71875-8.9375 .59375-1.15625zm-45.71875.0625 .40625.28125 .0625,9.03125-.6875-.03125 .21875-9.28125zm99.25.125 .59375.4375-.21875.21875-.71875-.53125 .34375-.125zm-107.09375.0625 1.3125,1-.03125,1.53125-1.28125-.96875v-1.5625zm97.125.15625 .34375.21875-1.8125,1.34375-.3125-.125 1.78125-1.4375zm6.1875.15625v.8125l-1,.4375-.0625-.8125 1.0625-.4375zm-5.4375.0625 .0625,8.03125-1.78125.78125-.125-7.46875 1.84375-1.34375zm1.53125.03125 .46875.15625v6.65625l-.40625-.03125-.0625-6.78125zm7.0625.15625 .46875.34375-.4375.1875-.03125-.53125zm-62.9375.25c.66741-.03528 1.25814.04724 1.625.3125-.43337.58014-1.33157.68617-2.09375.9375-.78825-.09139-1.48211.20831-2.375-.40625 .61116-.3165.69519-.8897 2.15625-.78125 .23923-.02853.46503-.05074.6875-.0625zm64.5.03125v1.90625l-.21875-.03125c.21108-.45091.24907-.50896-.1875-.96875-.03975-.14685-.06507-.60729-.09375-.875l.5-.03125zm-8.90625.28125v.46875l-1.03125.4375-.03125-.46875 1.0625-.4375zm-90.53125.03125 1.5,1.15625v.5l-1.5-1.125v-.53125zm2.125.1875 1.78125,1.59375-.46875-.0625-1.59375-1.28125 .28125-.25zm-6.375.03125 1.28125.96875v.25l-1.25-1-.03125-.21875zm41.34375.1875-.59375,2.625c-.845,1.05885-2.73211,1.1893-4.34375.40625l-.34375-2.375c.61525.32669 1.70224.33664 2.65625.4375 1.22434-.10643 2.04777-.50198 2.625-1.09375zm60.84375,0h.03125l.3125.3125-.3125.125-.03125-.4375zm-3.4375.0625 .25.21875 .03125.5625-1,.40625-.0625-.84375 .78125-.34375zm-92.71875.28125 1.53125,1.15625-.21875,9.25-1.40625-1.15625 .09375-9.25zm84.84375.15625 .46875.15625v6.65625l-.40625-.03125-.0625-6.78125zm3.9375,0 .03125.8125-1.0625.46875-.03125-.84375 1.0625-.4375zm8.34375,0-.21875.90625-.65625.28125-.0625-.8125 .9375-.375zm-103.125.03125 1.21875.96875v.53125l-1.21875-.9375v-.5625zm88.1875.09375 .34375.21875-1.8125,1.34375-.3125-.125 1.78125-1.4375zm-83.96875.125 1.46875,1.125-.03125,1.53125-1.4375-1.09375v-1.5625zm84.6875.09375 .09375,8.03125-1.8125.78125-.09375-7.46875 1.8125-1.34375zm1.65625.4375 .03125.5-1.46875.625-.03125-.5 1.46875-.625zm8.4375.03125v.46875l-.96875.40625-.03125-.46875 1-.40625zm-91.15625.3125 .40625.28125 .0625,9.03125-.6875-.03125 .21875-9.28125zm-7.84375.125 1.1875.90625-.03125,1.53125-1.15625-.875v-1.5625zm94.8125,0 .03125.8125-1.03125.4375-.03125-.78125 1.03125-.46875zm4.21875.46875 .03125.84375-.96875.40625-.03125-.84375 .96875-.40625zm-8.4375.03125 .03125.875-1.4375.625-.0625-.875 1.46875-.625zm-7.25.25 .34375.21875-1.8125,1.34375-.3125-.125 1.78125-1.4375zm2.9375.03125 .46875.15625v6.65625l-.40625-.03125-.0625-6.78125zm-2.1875.21875 .0625,8-1.78125.78125-.125-7.46875 1.84375-1.3125zm-75.5.125 2,1.53125v.53125l-2-1.5v-.5625zm-4.34375.15625 1.375,1.03125v.28125l-1.375-1.03125v-.28125zm90.59375,0 .03125.46875-1,.4375-.03125-.5 1-.40625zm-8.84375.125v.53125l-1.71875.75-.03125-.53125 1.75-.75zm-74.78125.375 1.78125,1.59375-.46875-.0625-1.59375-1.28125 .28125-.25zm79.40625.03125 .03125.75-1.40625.59375-.0625-.71875 1.4375-.625zm-86.375.1875 1.34375,1.0625v.5l-1.34375-1v-.5625zm90.625.21875 .03125.84375-1,.4375-.03125-.875 1-.40625zm-86.28125.125 1.96875,1.46875-.03125,1.53125-1.9375-1.46875v-1.53125zm2.28125,0 1.53125,1.15625-.21875,9.25-1.40625-1.15625 .09375-9.25zm29.0625,0 5.65625,4.625-8.375,3.84375-5.5625-5.59375 6.96875-2.78125c.42175.02092.85451.00311 1.3125-.09375zm46.09375.0625 .03125.90625-1.71875.75-.03125-.90625 1.71875-.75zm-46.5625.21875-6.53125,2.59375 4.4375,4.40625 6.78125-2.625-4.6875-4.375zm41.96875.03125 .46875.15625v6.65625l-.40625-.03125-.0625-6.78125zm-2.875.125 .34375.21875-1.8125,1.34375-.3125-.125 1.78125-1.4375zm.75.21875 .0625,8.03125-1.78125.78125-.125-7.46875 1.84375-1.34375zm11.34375.03125 .03125.46875-1.40625.59375-.03125-.5 1.40625-.5625zm-86.40625.1875 1.3125,1-.03125,1.53125-1.28125-1v-1.53125zm34.84375.0625v1.53125l-4.28125,1.65625-1.03125-.96875 5.3125-2.21875zm42.0625.15625 .03125.53125-1.65625.6875-.03125-.53125 1.65625-.6875zm-41.5.0625 3.4375,3.15625-1.375.5625-2.09375-2.28125 .03125-1.4375zm-26.9375.125 .40625.28125 .0625,9.03125-.6875-.03125 .21875-9.28125zm73.34375.125 .03125.6875-1.6875.71875-.03125-.65625 1.6875-.75zm4.625.21875 .03125.875-1.375.59375-.03125-.875 1.375-.59375zm-9.5.46875 .03125.9375-1.625.71875-.0625-.96875 1.65625-.6875zm-72.59375.125 1.0625.8125c-.04664.06438-.10568.12471-.15625.1875l-.875-.6875-.03125-.3125zm68.0625.125 .46875.15625v6.65625l-.40625-.03125-.0625-6.78125zm-63.1875.15625 1.75,1.3125v.5l-1.75-1.3125v-.5zm72.625.0625 .03125.53125-1.6875.6875-.03125-.5625 1.6875-.65625zm-47,.0625-.03125,2.15625-2.34375,1.125-1.625-1.53125 4-1.75zm34.53125,0 .34375.21875-1.8125,1.34375-.3125-.125 1.78125-1.4375zm-34,.21875 1.96875,2.09375-1.21875.5-.8125-.5625 .0625-2.03125zm34.71875.03125 .09375,8-1.78125.78125-.125-7.46875 1.8125-1.3125zm-58.5.0625 1.78125,1.59375-.46875-.0625-1.59375-1.28125 .28125-.25zm-7.21875.03125 .6875.5 1.1875.9375-.03125.46875-1.84375-1.375v-.53125zm67.75.09375 .03125.5625-1.84375.75-.03125-.59375 1.84375-.71875zm-66.4375.15625 .5625.4375v.3125l-.65625-.5c.04023-.07969.05737-.17005.09375-.25zm21.5625.1875 5.53125,5.28125v.78125l-5.5625-5.09375 .03125-.96875zm-16,.09375 1.53125,1.15625-.21875,9.25-1.40625-1.15625 .09375-9.25zm65.71875,0 .03125.625-1.625.6875-.03125-.59375 1.625-.71875zm4.90625.0625 .03125.90625-1.65625.6875-.03125-.875 1.65625-.71875zm-72.65625.09375 1.71875,1.3125-.03125,1.53125-1.6875-1.28125v-1.5625zm62.9375.46875 .03125.96875-1.8125.78125-.0625-1 1.84375-.75zm-67.78125.03125 1.8125,1.40625-.03125,1.53125-1.78125-1.3125v-1.625zm59.96875.375 .34375.21875-1.8125,1.34375-.3125-.125 1.78125-1.4375zm3.125,0 .46875.15625v6.65625l-.40625-.03125-.0625-6.78125zm9.53125.03125 .03125.53125-1.59375.6875-.03125-.5625 1.59375-.65625zm-49.78125.0625 5.5625,5.0625 .03125,2.28125-5.65625-5.3125 .0625-2.03125zm37.875.125 .0625,8.03125-1.78125.78125-.125-7.46875 1.84375-1.34375zm-52,.03125 .40625.28125 .0625,9.03125-.6875-.03125 .21875-9.28125zm22.21875.25 .625.46875-.65625.28125 .03125-.75zm-.5.03125v.90625l-1.5625.65625-.625-.5625 2.1875-1zm32.375,0v.65625l-1.875.78125-.03125-.625 1.90625-.8125zm-25.78125.1875v.78125l-8.0625,3.59375v-.59375l8.0625-3.78125zm30.78125.3125 .03125.53125-1.8125.75v-.5l1.78125-.78125zm4.84375.03125 .03125.9375-1.5625.6875-.0625-.96875 1.59375-.65625zm-67.8125.28125 1.65625,1.28125v.3125l-1.625-1.21875-.03125-.375zm4.625.125 1.875,1.40625v.5l-1.875-1.40625v-.5zm53.375.1875 .03125,1-1.875.84375-.0625-1.03125 1.90625-.8125zm-25.78125.0625 .03125,2.03125-8.09375,4-.03125-2.28125 8.09375-3.75zm18.28125.03125 .34375.21875-1.8125,1.34375-.3125-.125 1.78125-1.4375zm-43.375.15625 1.78125,1.59375-.46875-.0625-1.59375-1.28125 .28125-.25zm46.09375,0 .46875.15625v6.65625l-.40625-.03125-.0625-6.78125zm-1.96875.0625 .0625,8.03125-1.78125.78125-.125-7.46875 1.84375-1.34375zm11.75.03125 .03125.59375-1.78125.75-.03125-.59375 1.78125-.75zm-62.96875.15625 1.625,1.21875-.03125.46875-1.59375-1.1875v-.5zm17.90625.25 5.65625,5.21875 .03125,1.78125-5.75-4.84375 .0625-2.15625zm-11.15625.0625 1.53125,1.15625-.21875,9.25-1.40625-1.15625 .09375-9.25zm-2.15625.15625 1.84375,1.375-.03125,1.5625-1.8125-1.375v-1.5625zm48.3125.03125 .03125.59375-1.53125.65625-.03125-.65625 1.53125-.59375zm10.09375.4375 .03125.96875-1.75.75-.03125-1 1.75-.71875zm-5,.0625 .03125.46875-1.875.8125v-.5l1.84375-.78125zm-58,.15625 1.5625,1.21875-.03125,1.53125-1.53125-1.1875v-1.5625zm48.5625.34375 .46875.15625v6.65625l-.375-.03125v-.25h-.03125v-1.0625l-.03125-.5-.03125-4.96875zm-39.96875.09375 .40625.28125 .0625,9.03125-.6875-.03125 .21875-9.28125zm44.34375.0625 .03125,1.03125-1.46875.625-.0625-1.0625 1.5-.59375zm-20.71875.1875 .03125,1.71875-8.09375,3.96875-.03125-1.8125 8.09375-3.875zm25.8125.03125 .03125.625-1.84375.75-.03125-.625 1.84375-.75zm-9.75.5 .03125.65625-.78125.34375-.28125-.5625 1.03125-.4375zm-30.4375.15625 5.75,4.9375 .03125,1.96875-5.84375-5.125 .0625-1.78125zm-13.25.1875 1.78125,1.34375v.3125l-1.75-1.3125-.03125-.34375zm4.75.1875 1.25.9375v.46875l-1.25-.9375v-.46875zm1.875.09375 1.78125,1.59375-.46875-.0625-1.59375-1.28125 .28125-.25zm46.84375,0 .03125,1-1.8125.78125-.0625-1 1.84375-.78125zm-5.09375.15625 .03125.4375-1.46875.59375-.03125-.40625 1.46875-.625zm-6.09375.09375c.17164.01066.38826.224.53125.25-.54233.67884-.21881.79268-.28125,1.5625-.11799-.04862-.42749-.10395-.46875-.15625-.36183-.45861-.09981-1.02235.0625-1.59375 .04083-.05121.09904-.06605.15625-.0625zm-42.25.25 1.71875,1.3125v.46875l-1.71875-1.3125v-.46875zm6.25.0625 1.53125,1.15625-.21875,9.25-1.40625-1.15625 .09375-9.25zm37.4375,0 .03125,1.0625-.6875.3125c-.60886-.32902-.6142-.4019-.0625-1.0625l.71875-.3125zm-16.0625.125 .03125,1.90625-8.125,3.65625v-1.46875l8.09375-4.09375zm20.75.28125 .03125.65625-1.4375.59375-.03125-.65625 1.4375-.59375zm-43.65625.09375 1.21875.90625-.03125,1.5625-1.1875-.875v-1.59375zm3.375.78125 .40625.28125 .0625,9.03125-.6875-.03125 .21875-9.28125zm40.3125.28125 .03125,1.03125-1.40625.59375-.0625-1.03125 1.4375-.59375zm-4.65625.71875 .03125.6875-.5.21875-.28125-.5625 .75-.34375zm-34.90625.1875 1.75,1.3125v.46875l-1.75-1.3125v-.46875zm-4.125.28125 1.15625.84375v.375l-1.125-.84375-.03125-.375zm6.5.1875 1.78125,1.59375-.46875-.0625-1.59375-1.28125 .28125-.25zm31.375.125c.17164.01065.41951.19275.5625.21875-.54232.67884-.25006.82393-.3125,1.59375-.11799-.04861-.42749-.10395-.46875-.15625-.36183-.45861-.06856-1.02235.09375-1.59375 .04083-.05121.06779-.06605.125-.0625zm-31.71875.4375 1.53125,1.15625-.21875,9.25-1.40625-1.15625 .09375-9.25zm32.90625,0 .03125,1.0625-.4375.1875c-.60886-.32902-.58295-.4019-.03125-1.0625l.4375-.1875zm-39.03125.03125 1.125.84375-.03125.4375-1.09375-.84375v-.4375zm4.09375.09375 1.71875,1.28125-.03125,1.5625-1.6875-1.25v-1.59375zm-4.09375,1.0625 1.09375.8125-.0625,1.5625-1.03125-.78125v-1.59375zm7.875.0625 .5.1875 .125,9.125-.75.0625 .125-9.375zm2.84375,1.0625 1.78125,1.59375-.46875-.0625-1.59375-1.28125 .28125-.25zm-6.625.03125 1.65625,1.28125v.375l-1.625-1.28125-.03125-.375zm4.625.125 1.375,1.03125v.4375l-1.375-1.03125v-.4375zm1.65625.40625 1.53125,1.15625-.21875,9.25-1.40625-1.15625 .09375-9.25zm-6.25.28125 1.625,1.21875-.03125.4375-1.59375-1.21875v-.4375zm4.59375.4375 1.34375,1.03125-.03125,1.5625-1.3125-.96875v-1.625zm3.5.5625 .40625.28125 .0625,9.03125-.6875-.03125 .21875-9.28125zm-8.09375.15625 1.59375,1.15625-.0625,1.59375-1.53125-1.1875v-1.5625zm8.84375,1.375 2.25,1.71875-.21875.21875-2.03125-1.53125v-.40625zm-4.25.15625 1.28125.9375v.4375l-1.25-.96875-.03125-.40625zm.03125.8125 1.21875.9375v.40625l-1.21875-.9375v-.40625zm4.21875.15625 1.65625,1.25-.09375,1.53125-1.5625-1.1875v-1.59375zm-4.21875.96875 1.1875.90625-.03125,1.59375-1.15625-.90625v-1.59375zm6.8125.09375v1.90625l-.5625-.03125c.27705-.71286.1019-1.25747.0625-1.84375l.5-.03125zm-2.5625,2 2.03125,1.5625-.21875.21875-1.8125-1.375v-.40625zm0,1.125 1.4375,1.09375-.09375,1.53125-1.34375-1.03125v-1.59375zm2.375.90625v1.90625l-.5625-.03125c.27705-.71286.1019-1.25747.0625-1.84375l.5-.03125z" fill="#5c2700" fill-rule="evenodd"/>
</svg>
